<svg width="200" height="200" viewBox="0 0 200 200" fill="none" xmlns="http://www.w3.org/2000/svg">
<path d="M124.878 196.516C123.221 199.385 119.552 200.369 116.683 198.712C113.813 197.055 112.829 193.385 114.486 190.516L114.784 190H128.64L124.878 196.516ZM155.977 190C155.029 190.238 154.023 190.246 153.049 190H155.977ZM168 125C185.673 125 200 139.327 200 157V158C200 175.673 185.673 190 168 190H155.977C157.497 189.618 158.866 188.646 159.712 187.182C161.369 184.312 160.385 180.643 157.516 178.986L140.627 169.235L150.378 152.349C152.035 149.479 151.052 145.809 148.183 144.152C145.313 142.496 141.643 143.479 139.986 146.349L130.235 163.236L113.349 153.486C110.479 151.83 106.809 152.812 105.152 155.682C103.496 158.551 104.479 162.221 107.349 163.878L124.236 173.628L114.784 190H32C14.327 190 1.65101e-05 175.673 0 158V157C0 139.327 14.3269 125 32 125H168ZM151.516 189.378C152.008 189.662 152.524 189.867 153.049 190H128.64L134.628 179.627L151.516 189.378Z" fill="#924FF7"/>
<path d="M147 71C160.255 71 171 81.7452 171 95C171 108.255 160.255 119 147 119H51.0001C41.0634 119 32.5369 112.961 28.8907 104.354C30.8605 104.776 32.9042 105 35.0001 105C51.0163 105 64.0001 92.0162 64.0001 76C64.0001 74.2949 63.8518 72.6244 63.5695 71H147ZM35.0001 47C49.3112 47.0001 61.2 57.3666 63.5695 71H55.3995C53.1563 61.8162 44.8749 55.0001 35.0001 55C23.4021 55 14.0001 64.402 14.0001 76C14.0001 84.7669 19.3731 92.2768 27.005 95.4219C27.0595 98.5861 27.7249 101.601 28.8907 104.354C15.8083 101.548 6.00012 89.9204 6.00012 76C6.00012 59.9837 18.9839 47 35.0001 47ZM55.3995 71C55.791 72.6026 56.0001 74.2769 56.0001 76C56.0001 87.5979 46.598 96.9999 35.0001 97C32.169 97 29.4696 96.4375 27.005 95.4219C27.0026 95.2815 27.0001 95.1409 27.0001 95C27.0001 81.7452 37.7453 71 51.0001 71H55.3995Z" fill="#924FF7"/>
<path d="M76.0013 14.2664C77.4586 8.10572 85.1552 5.9984 89.5476 10.5575L128.945 51.4494C133.84 56.5305 130.239 65 123.184 65H103H74.1133C68.9506 65 65.1397 60.1825 66.3282 55.1584L76.0013 14.2664Z" fill="#924FF7"/>
</svg>
