<svg width="120" height="120" viewBox="0 0 120 120" fill="none" xmlns="http://www.w3.org/2000/svg">
<path d="M74.9268 118.195C73.9326 119.921 71.7315 120.512 70.0098 119.516C68.2879 118.519 67.6973 116.312 68.6914 114.586L68.8701 114.276H77.1836L74.9268 118.195ZM93.5859 114.276C93.0181 114.419 92.4157 114.424 91.832 114.276H93.5859ZM100.453 75.1817C111.249 75.1819 120 83.9332 120 94.7286C120 105.524 111.249 114.276 100.453 114.276H93.5859C94.498 114.047 95.3198 113.462 95.8271 112.581C96.8211 110.855 96.2315 108.648 94.5098 107.651L84.377 101.787L90.2266 91.631C91.2207 89.9049 90.631 87.6978 88.9092 86.7013C87.1873 85.7047 84.9853 86.2956 83.9912 88.0216L78.1406 98.1778L68.0088 92.3145C66.287 91.3183 64.0858 91.9099 63.0918 93.6358C62.0977 95.3619 62.6873 97.569 64.4092 98.5655L74.541 104.429L68.8701 114.276H19.5469C8.75145 114.276 0 105.524 0 94.7286C0.000183492 83.9331 8.75232 75.1817 19.5479 75.1817H100.453ZM90.9092 113.902C91.2052 114.074 91.5162 114.197 91.832 114.276H77.1836L80.7764 108.038L90.9092 113.902Z" fill="#37165A"/>
<path d="M88.1655 42.7029C96.1376 42.7031 102.6 49.1664 102.6 57.1384C102.6 65.1103 96.1374 71.5728 88.1655 71.573H30.6353C24.659 71.573 19.5305 67.9413 17.3374 62.7644C18.3773 62.9878 19.4515 63.1193 20.5513 63.1472L21.0005 63.1531C30.4598 63.1528 38.1557 55.5856 38.394 46.1609L38.3999 45.7107C38.3999 44.685 38.3115 43.68 38.1421 42.7029H88.1655ZM21.4487 28.2742C29.8341 28.487 36.7451 34.6465 38.1421 42.7029H30.6353C30.3943 42.7029 30.1545 42.7088 29.9165 42.7205C28.6691 38.9635 25.139 36.2685 21.0005 36.2683C15.8273 36.2683 11.6001 40.4777 11.6001 45.7107C11.6002 49.3123 13.6025 52.429 16.5376 54.0222C16.3168 55.0257 16.1997 56.0686 16.1997 57.1384C16.1998 59.1342 16.605 61.0355 17.3374 62.7644C9.62772 61.1085 3.81263 54.3339 3.60596 46.1609L3.6001 45.7107C3.6001 36.0777 11.3907 28.2683 21.0005 28.2683L21.4487 28.2742ZM29.9165 42.7205C30.2283 43.6596 30.3999 44.6643 30.3999 45.7107C30.3998 50.9435 26.1734 55.1528 21.0005 55.1531C19.3878 55.1531 17.867 54.7439 16.5376 54.0222C17.9124 47.7738 23.3351 43.0431 29.9165 42.7205Z" fill="#37165A"/>
<path d="M44.2515 14.298C45.707 8.13035 53.4143 6.02287 57.8056 10.5918L72.183 25.5509C77.069 30.6346 73.4662 39.0945 66.4151 39.0945H61.8H48.5076C43.3467 39.0945 39.5361 34.2801 40.7215 29.2571L44.2515 14.298Z" fill="#37165A"/>
</svg>
